<svg xmlns="http://www.w3.org/2000/svg" viewBox="0 0 500 500"><g id="freepik--background-simple--inject-3"><path d="M165.19,75.75s-75.77,38.61-113.56,98.1-34.8,136,11.12,192.78S196.44,416,269.93,452s154.57,28.58,189.32-47.66S441.6,299.57,432.6,211.36,344.07-6,165.19,75.75Z" style="fill:#FFB74D"></path><path d="M165.19,75.75s-75.77,38.61-113.56,98.1-34.8,136,11.12,192.78S196.44,416,269.93,452s154.57,28.58,189.32-47.66S441.6,299.57,432.6,211.36,344.07-6,165.19,75.75Z" style="fill:#fff;opacity:0.7000000000000001"></path></g><g id="freepik--character-2--inject-3"><ellipse cx="252.13" cy="455.2" rx="52.33" ry="11.8" style="fill:#263238;stroke:#263238;stroke-linecap:round;stroke-linejoin:round"></ellipse><path d="M293,174.79s6.86,34.43,8.08,40.8,3.46,21.51,6,28.15,1.71,15.14.44,17.53a39.59,39.59,0,0,1-4.37,5.84L294.63,256s-5.07-54.44-5.26-62.15S293,174.79,293,174.79Z" style="fill:#fff;stroke:#263238;stroke-linecap:round;stroke-linejoin:round"></path><path d="M297.52,254.64s5.4,3.37,6.35,4.8,1.63,3.25.89,4.8-4.77,6.23-5.79,7.14-1.88-2.72-2-5.84S297.52,254.64,297.52,254.64Z" style="fill:#fff;stroke:#263238;stroke-linecap:round;stroke-linejoin:round"></path><path d="M268.48,443.44s16.93,8.23,18,9.83S283.69,457,273.6,457s-10.39-1.33-14.4-2.39-12-.27-13.08-2.66.8-10.62.8-10.62Z" style="fill:#fff;stroke:#263238;stroke-linecap:round;stroke-linejoin:round"></path><path d="M246,447.69s14,8.5,12.77,11.42-11.35,2.92-16.68,2.12-16.66-8-17.26-10.62.9-6.64,9.11-7.43S246,447.69,246,447.69Z" style="fill:#fff;stroke:#263238;stroke-linecap:round;stroke-linejoin:round"></path><path d="M288.5,308.8s-8,61.61-9.39,70.64-5.8,23.37-8.18,34.26a181.53,181.53,0,0,0-3,19.39,18.18,18.18,0,0,0,.13,5.57c.34,2.66.39,4.78.39,4.78a72.54,72.54,0,0,1-10.84,1.86c-4.51.27-10.62.27-10.62.27l-2-17.26s1.49-25.5,2.37-32.93,1.82-65.86,1.78-67.46-.39-15.67-.39-15.67L276,309.33s3.72-10.62,9.31-10.09S288.5,308.8,288.5,308.8Z" style="fill:#fff;stroke:#263238;stroke-linecap:round;stroke-linejoin:round"></path><path d="M285.35,299.24c-5.59-.53-9.31,10.09-9.31,10.09l-27.28,2.92s.09,3.74.18,7.58c2.91.26,5.6.41,7.9.41A240.45,240.45,0,0,0,283,318.77l1.17-12.24L286,319l1.26-.41c.78-5.94,1.28-9.81,1.28-9.81S290.94,299.77,285.35,299.24Z" style="fill:#263238;stroke:#263238;stroke-linecap:round;stroke-linejoin:round"></path><path d="M220.3,310.66s0,.38.06,1.07c.37,7.26,2.57,49.33,3.24,57.09.75,8.5-3,17.79-2.81,25.49s2,49.4,2,49.4l2,6.9s4.7-3.18,9.21-3.18,12,.26,12,.26.39-5.58.35-7.43-.21-8.5-.21-8.5,7.63-34.79,8.09-37.71,6.38-53.38,6.34-55,1.25-24.17,1.25-24.17Z" style="fill:#fff;stroke:#263238;stroke-linecap:round;stroke-linejoin:round"></path><path d="M261.54,320.19c.17-3.08.29-5.28.29-5.28l-41.53-4.25s0,.38.06,1.07c0,.88.11,2.27.21,4,9.71,1.74,26.56,4.48,36.27,4.48C258.44,320.24,260,320.22,261.54,320.19Z" style="fill:#263238;stroke:#263238;stroke-linecap:round;stroke-linejoin:round"></path><path d="M250.9,147.6s-4.39.74-6.06,2.7a44,44,0,0,0-4.5,6.12c-.23.74-26.05,16.41-26.05,16.41l1.86,74.72s.77,11.51-.6,15.43a79,79,0,0,0-3.33,23.77c.24,9.55.86,25,.86,25s29.55,5.88,43.76,5.88A240.45,240.45,0,0,0,283,316.14l1.17-12.25,1.78,12.5,6.07-2,5-37s3.48-7.84,3.44-9.56.88-3.92-.13-5.39-2.81-4.41-2.81-4.41S293,177,293,174.79s-13.37-15.18-14.36-15.67-7.09-9.56-15-12S250.9,147.6,250.9,147.6Z" style="fill:#fff;stroke:#263238;stroke-linecap:round;stroke-linejoin:round"></path><polyline points="242.85 158.87 239.89 185.78 252.05 191.43 249.01 200.56 279.42 254" style="fill:none;stroke:#263238;stroke-linecap:round;stroke-linejoin:round"></polyline><polyline points="276.82 161.89 285.94 183.18 282.03 188.39 288.55 197.51 285.94 256.17" style="fill:none;stroke:#263238;stroke-linecap:round;stroke-linejoin:round"></polyline><path d="M249.77,151.28a56.54,56.54,0,0,0,2.83,15.43c2.63,7.35,20.06,58.06,20.06,58.06l11.27,39.68s-1.49-40.42-1.53-42.13-8.54-57.82-8.54-57.82-1.45-9.06-3.74-12.49S252.48,142.21,249.77,151.28Z" style="fill:#FFB74D;stroke:#263238;stroke-linecap:round;stroke-linejoin:round"></path><path d="M248.69,147.36s-7.09.73-5.84,11.51,2.9,18.13,2.9,18.13" style="fill:none;stroke:#263238;stroke-linecap:round;stroke-linejoin:round;stroke-width:2px"></path><path d="M244.88,191.21s3,12.49,5.05,15.92,8.25,6.86,12.66,6.86" style="fill:none;stroke:#263238;stroke-linecap:round;stroke-linejoin:round"></path><path d="M254.36,188.27s3.3,14.45,3.85,17.15-1.27,7.83-4.33,13" style="fill:none;stroke:#263238;stroke-linecap:round;stroke-linejoin:round"></path><path d="M253,220.13h0a1.36,1.36,0,0,1-.54-1.84l.35-.64a1.32,1.32,0,0,1,1.82-.49h0a1.37,1.37,0,0,1,.55,1.84l-.35.63A1.33,1.33,0,0,1,253,220.13Z" style="fill:#263238"></path><path d="M264.23,214.26h0a1.31,1.31,0,0,1-1.36,1.31l-.73,0a1.37,1.37,0,0,1-1.34-1.38h0a1.3,1.3,0,0,1,1.35-1.31l.73,0A1.39,1.39,0,0,1,264.23,214.26Z" style="fill:#263238"></path><path d="M244.9,192.19l-1.68-10.65a4.38,4.38,0,0,1,3.31-5h0a4.63,4.63,0,0,1,5.5,3.32l2.87,10.6" style="fill:none;stroke:#263238;stroke-linecap:round;stroke-linejoin:round;stroke-width:2px"></path><ellipse cx="283.94" cy="194.34" rx="4.38" ry="5.05" transform="translate(-17.97 29.29) rotate(-5.72)" style="fill:#fff;stroke:#263238;stroke-linecap:round;stroke-linejoin:round"></ellipse><path d="M272.13,151.85s9.63,13.55,12.7,41.17" style="fill:none;stroke:#263238;stroke-linecap:round;stroke-linejoin:round;stroke-width:2px"></path><ellipse cx="284.84" cy="193.42" rx="2.39" ry="2.79" transform="translate(-16.69 27.21) rotate(-5.31)" style="fill:#fff;stroke:#263238;stroke-linecap:round;stroke-linejoin:round"></ellipse><path d="M299.16,256.75a49.77,49.77,0,0,0-1.45,5.58c0,.8-.19,3.19-2.06,2.65s-1.31-10.09-1.07-11.15,4.79,2.37,4.79,2.37" style="fill:#fff;stroke:#263238;stroke-linecap:round;stroke-linejoin:round"></path><path d="M238.46,248.29a11.89,11.89,0,0,0,5.42,1.47c2.94,0,8.31-1,10.28-.49s7,6.85,7,6.85,1.5,1.47.79,2.21-2.16,2-3.16,1.22-6-4.9-6-4.9l-12.61,5.15L235,257.1Z" style="fill:#fff;stroke:#263238;stroke-linecap:round;stroke-linejoin:round"></path><path d="M219.15,171.12s-8.31,1-9.72,3.18-24.18,52.18-24.13,54.39,45.53,38,45.53,38L240.65,248l-24.57-22.78,10.66-24.74" style="fill:#fff;stroke:#263238;stroke-linecap:round;stroke-linejoin:round"></path><polyline points="234.48 275.72 258.5 276.21 258.38 261.27" style="fill:none;stroke:#263238;stroke-linecap:round;stroke-linejoin:round"></polyline><line x1="240.21" y1="259.8" x2="233.86" y2="262.17" style="fill:none;stroke:#263238;stroke-linecap:round;stroke-linejoin:round"></line><path d="M247.45,136.82s2.73,21.32,4.53,24.5,14.6,15.92,14.6,15.92,4-14.69,4.45-18.12.8-17.15.8-17.15l-24.43-6.86Z" style="fill:#fff;stroke:#263238;stroke-linecap:round;stroke-linejoin:round"></path><path d="M247.45,136.82s.32,2.5.81,5.91a24.53,24.53,0,0,0,6.48,4.34c3.15,1.39,11.55,2.17,16.86,1.55.14-3.59.23-6.65.23-6.65l-24.43-6.86Z" style="fill:#263238;stroke:#263238;stroke-linecap:round;stroke-linejoin:round"></path><path d="M240.37,118.21s-3.27-3.43-4.89.48,2,9.8,3.93,10.05a8.52,8.52,0,0,0,3.42-.25s1.37,5.64,2.63,7.35a25.68,25.68,0,0,0,9.28,7.34c4.46,2,19.39,2.71,21.28,0s1.78-17.15,1.75-18.37-.24-18.68-.24-18.68,1.34-6.06-.48-10.23-20.09-10-24.68-7.59-9.88,6.61-10.24,12-.14,14.21-.14,14.21Z" style="fill:#fff;stroke:#263238;stroke-linecap:round;stroke-linejoin:round"></path><path d="M267.37,110.61s3.05,14,2.35,15.68-2.89,1.71-5.63.24-1.31-3.43-1.31-3.43" style="fill:none;stroke:#263238;stroke-linecap:round;stroke-linejoin:round"></path><path d="M256.75,126.78s1.32,3.67,3.77,3.92,8.6.73,8.6.73" style="fill:none;stroke:#263238;stroke-linecap:round;stroke-linejoin:round"></path><path d="M248,111.1l.39,5.88s2.24,1.23,7.38,1.23,6.83-1.23,6.83-1.23l-.14-5.88S255,106.69,248,111.1Z" style="fill:none;stroke:#263238;stroke-linecap:round;stroke-linejoin:round"></path><path d="M267.39,111.1l1.86,6.13s.76,1,5.91,1S282,117,282,117l-.15-5.88S274.38,106.69,267.39,111.1Z" style="fill:none;stroke:#263238;stroke-linecap:round;stroke-linejoin:round"></path><line x1="262.49" y1="111.1" x2="267.39" y2="111.1" style="fill:none;stroke:#263238;stroke-linecap:round;stroke-linejoin:round"></line><line x1="248.03" y1="111.1" x2="238.37" y2="116.74" style="fill:none;stroke:#263238;stroke-linecap:round;stroke-linejoin:round"></line><path d="M250.41,108.16s2.62-2.94,8.56-.49" style="fill:none;stroke:#263238;stroke-linecap:round;stroke-linejoin:round"></path><path d="M268.29,108.16a6,6,0,0,1,6.35-.73" style="fill:none;stroke:#263238;stroke-linecap:round;stroke-linejoin:round"></path><path d="M256.67,113.8c0,1.08-.39,2-.93,2s-1-.88-1-2,.39-2,.94-2S256.65,112.71,256.67,113.8Z" style="fill:#263238"></path><path d="M272.35,113.55c0,1.08-.39,2-.93,2s-1-.88-1-2,.39-2,.93-2S272.32,112.47,272.35,113.55Z" style="fill:#263238"></path><path d="M255.57,90.89S257.93,96.1,255,98a5.94,5.94,0,0,1-5.95,0,6.58,6.58,0,0,1,.19,7.44,41.31,41.31,0,0,1-5,6.69s.53,6.33-.57,7.07-4.1-.37-4.15-2.23-1.25-5.58-1.3-7.44-.91-6.7-.91-6.7-7.52-3.35-3.53-7.44,12.46-7.44,12.46-7.44.19-7.44,5.34-9.67,16.23-5.58,16.32-1.86a11.42,11.42,0,0,1-1,5.58s9.29-.37,15.77,6,6.26,12.28,2.91,12.28-4.44.74-4.44.74,6.41,3.72,3.11,5.58-6.7-.37-6.7-.37,1.42-2.6-2.76-6S255.57,90.89,255.57,90.89Z" style="fill:#263238;stroke:#263238;stroke-linecap:round;stroke-linejoin:round"></path></g></svg>